<svg xmlns="http://www.w3.org/2000/svg" width="256" height="256" viewBox="0 0 256 256" role="img" aria-label="Somnia Swap logo">
  <defs>
    <linearGradient id="g" x1="0" y1="0" x2="1" y2="1">
      <stop offset="0%" stop-color="#6C5CE7"/>
      <stop offset="100%" stop-color="#8E44AD"/>
    </linearGradient>
    <filter id="soft" x="-20%" y="-20%" width="140%" height="140%">
      <feGaussianBlur in="SourceGraphic" stdDeviation="1.2"/>
    </filter>
  </defs>
  <!-- Badge -->
  <circle cx="128" cy="128" r="120" fill="url(#g)"/>
  <!-- Flowing S (two crescent strokes) -->
  <path d="M188 84c0 0-22-24-60-24s-60 20-60 44c0 22 26 32 60 36 34 4 60 12 60 36 0 24-26 44-60 44s-60-24-60-24"
        fill="none" stroke="#FFFFFF" stroke-width="16" stroke-linecap="round" stroke-linejoin="round"/>
  <!-- Spark (dream/star) -->
  <g transform="translate(186 70)" fill="#FFFFFF">
    <path d="M10 0c.6 3.6 2.8 6.4 6.4 7l-6.4 1.1C9.8 11.8 8 14.6 7.4 18L6.2 11.6C2.6 11 0 8.2 0 4.6L3.6 5.8 10 0z"/>
  </g>
  <!-- Subtle inner glow -->
  <circle cx="128" cy="128" r="110" fill="none" stroke="#FFFFFF" stroke-opacity=".15" stroke-width="2" filter="url(#soft)"/>
</svg>
